<svg viewBox="0 0 400 400" xmlns="http://www.w3.org/2000/svg"><rect width="400" height="400" fill="#0a0a0a"/><circle cx="200" cy="185" r="120" fill="#ec4899" opacity="0.08"/><g stroke="#ec4899" stroke-width="2" stroke-linecap="round" stroke-linejoin="round" fill="none"><rect x="140" y="105" width="120" height="155" rx="10"/><rect x="158" y="120" width="84" height="60" rx="4"/><circle cx="200" cy="222" r="12"/><path d="M168 148 Q168 138 178 135 Q188 132 192 140"/><path d="M232 148 Q232 138 222 135 Q212 132 208 140"/><line x1="175" y1="158" x2="225" y2="158"/><path d="M155 260 Q155 275 200 275 Q245 275 245 260"/><line x1="200" y1="260" x2="200" y2="275"/><path d="M175 285 Q185 295 200 295 Q215 295 225 285"/></g><text x="200" y="316" text-anchor="middle" fill="white" font-size="16" font-weight="600" font-family="system-ui,sans-serif">AI Vision ID</text></svg>